<svg xmlns="http://www.w3.org/2000/svg" width="16" height="15" viewBox="0 0 16 15"><g><g><path fill="#56ccc8" d="M8-.032c-4.419 0-8 3.218-8 6.531 0 2.063 1.39 3.883 3.504 4.963 0 .013-.015.027-.004.038.5.499-.5 3.499-1.5 3.499 1.658.009 4-1 4.457-2.614.5.073 1.015.114 1.543.114 4.418 0 8-2.687 8-6S12.418-.032 8-.032z"/><path fill="#049372" d="M8-.032c-4.419 0-8 3.218-8 6.531 0 2.063 1.39 3.883 3.504 4.963 0 .013-.015.027-.004.038.5.499-.5 3.499-1.5 3.499 1.658.009 4-1 4.457-2.614.5.073 1.015.114 1.543.114 4.418 0 8-2.687 8-6S12.418-.032 8-.032z"/></g></g></svg>