<svg xmlns="http://www.w3.org/2000/svg" width="18" height="16" viewBox="0 0 18 16"><g><g><path fill="#b2b9bd" d="M11.168 12.433C11.198 14.338 9.17 16 5.92 16 3.067 16 .678 14.748.678 12.96c0-2.701 1.979-3.574 4.83-3.574.311 0 .596-.008.89-.008-.39-.364-.705-.68-.705-1.233 0-.329.108-.643.26-.923-.154.01-.312.02-.475.02-2.342 0-3.706-1.588-3.706-3.578 0-1.948 2.076-3.694 4.566-3.694h4.907L10.15 1.055H8.86c.91.502 1.392 1.534 1.392 2.675 0 1.047-.6 1.89-1.449 2.529-.829.625-.985.886-.985 1.417 0 .453.99 1.127 1.445 1.456 1.584 1.147 1.883 1.868 1.905 3.301zM6.427 6.446c1.255.035 1.976-.94 1.76-2.523C7.971 2.342 7.154 1.151 5.9 1.114 4.644 1.08 3.544 2.182 3.76 3.764c.217 1.584 1.41 2.645 2.666 2.682zM9.375 12.6c0-.152-.005-.306-.06-.445-.628-1.514-2.652-1.514-3.327-1.514-1.815 0-3.316.658-3.316 1.896 0 1.261 1.339 2.29 3.19 2.29 2.606 0 3.513-.964 3.513-2.227zm7.865-9.586h-2.07v1.983h-1.075V3.015H12.06V2.012h2.035V-.029h1.075v2.041h2.07z"/><path fill="#fff" d="M11.168 12.433C11.198 14.338 9.17 16 5.92 16 3.067 16 .678 14.748.678 12.96c0-2.701 1.979-3.574 4.83-3.574.311 0 .596-.008.89-.008-.39-.364-.705-.68-.705-1.233 0-.329.108-.643.26-.923-.154.01-.312.02-.475.02-2.342 0-3.706-1.588-3.706-3.578 0-1.948 2.076-3.694 4.566-3.694h4.907L10.15 1.055H8.86c.91.502 1.392 1.534 1.392 2.675 0 1.047-.6 1.89-1.449 2.529-.829.625-.985.886-.985 1.417 0 .453.99 1.127 1.445 1.456 1.584 1.147 1.883 1.868 1.905 3.301zM6.427 6.446c1.255.035 1.976-.94 1.76-2.523C7.971 2.342 7.154 1.151 5.9 1.114 4.644 1.08 3.544 2.182 3.76 3.764c.217 1.584 1.41 2.645 2.666 2.682zM9.375 12.6c0-.152-.005-.306-.06-.445-.628-1.514-2.652-1.514-3.327-1.514-1.815 0-3.316.658-3.316 1.896 0 1.261 1.339 2.29 3.19 2.29 2.606 0 3.513-.964 3.513-2.227zm7.865-9.586h-2.07v1.983h-1.075V3.015H12.06V2.012h2.035V-.029h1.075v2.041h2.07z"/></g></g></svg>