<svg xmlns="http://www.w3.org/2000/svg" width="18" height="16" viewBox="0 0 18 16"><g><g><path fill="#b2b9bd" d="M16.192 16.03H1.694c-.588 0-1.065-.462-1.065-1.031v-.594c0-.87 1.065-1.031 1.065-1.031l5.538-2.655C5.742 9.561 4.89 7.282 4.89 6.156V3.578C4.89 1.871 6.8-.03 9.153-.03s3.97 1.902 3.97 3.61v2.577c0 1.238-.843 3.448-2.32 4.573l5.389 2.645s1.065.177 1.065 1.031v.594c0 .57-.477 1.03-1.065 1.03z"/><path fill="#fff" d="M16.192 16.03H1.694c-.588 0-1.065-.462-1.065-1.031v-.594c0-.87 1.065-1.031 1.065-1.031l5.538-2.655C5.742 9.561 4.89 7.282 4.89 6.156V3.578C4.89 1.871 6.8-.03 9.153-.03s3.97 1.902 3.97 3.61v2.577c0 1.238-.843 3.448-2.32 4.573l5.389 2.645s1.065.177 1.065 1.031v.594c0 .57-.477 1.03-1.065 1.03z"/></g></g></svg>