<svg xmlns="http://www.w3.org/2000/svg" width="18" height="16" viewBox="0 0 18 16"><g><g><path fill="#b2b9bd" d="M16.879 15.725a1.069 1.069 0 0 1-1.473 0l-4.086-3.932a6.907 6.907 0 0 1-3.935 1.221C3.649 13.014.62 10.1.62 6.504c0-3.596 3.029-6.51 6.765-6.51 3.736 0 6.765 2.914 6.765 6.51a6.315 6.315 0 0 1-1.345 3.884l4.074 3.92a.976.976 0 0 1 0 1.417zm-4.81-9.22c0-2.49-2.098-4.509-4.684-4.509-2.587 0-4.683 2.019-4.683 4.508 0 2.49 2.096 4.507 4.683 4.507 2.587 0 4.683-2.017 4.683-4.507z"/><path fill="#fff" d="M16.879 15.725a1.069 1.069 0 0 1-1.473 0l-4.086-3.932a6.907 6.907 0 0 1-3.935 1.221C3.649 13.014.62 10.1.62 6.504c0-3.596 3.029-6.51 6.765-6.51 3.736 0 6.765 2.914 6.765 6.51a6.315 6.315 0 0 1-1.345 3.884l4.074 3.92a.976.976 0 0 1 0 1.417zm-4.81-9.22c0-2.49-2.098-4.509-4.684-4.509-2.587 0-4.683 2.019-4.683 4.508 0 2.49 2.096 4.507 4.683 4.507 2.587 0 4.683-2.017 4.683-4.507z"/></g></g></svg>