<svg xmlns="http://www.w3.org/2000/svg" width="18" height="16" viewBox="0 0 18 16"><g><g><path fill="#56ccc8" d="M4.276 11.8l.022.001h-.052.03zm-.33-.342c-.006-.149-.236-3.669 2.117-6.075 1.32-1.352 2.674-2.289 4.949-2.356V.34c0-.136.078-.26.202-.32a.365.365 0 0 1 .38.039l6.147 4.609a.355.355 0 0 1 0 .562L11.593 9.84a.364.364 0 0 1-.38.039.356.356 0 0 1-.201-.32V6.82c-6.507.16-6.223 4.46-6.239 4.652-.013.176-.306.314-.497.328a.358.358 0 0 1-.33-.342zm13.039-3.773v7.235c0 .589-.485 1.068-1.08 1.068H1.076c-.596 0-1.08-.479-1.08-1.068V4.021c0-.589.484-1.068 1.08-1.068h5.511c-.351.211-1.561 1.284-2.03 2.02H2.384c-.199 0-.36.16-.36.357v8.327c0 .196.161.356.36.356H14.63c.199 0 .36-.16.36-.356V9.02z"/><path fill="#049372" d="M4.276 11.8l.022.001h-.052.03zm-.33-.342c-.006-.149-.236-3.669 2.117-6.075 1.32-1.352 2.674-2.289 4.949-2.356V.34c0-.136.078-.26.202-.32a.365.365 0 0 1 .38.039l6.147 4.609a.355.355 0 0 1 0 .562L11.593 9.84a.364.364 0 0 1-.38.039.356.356 0 0 1-.201-.32V6.82c-6.507.16-6.223 4.46-6.239 4.652-.013.176-.306.314-.497.328a.358.358 0 0 1-.33-.342zm13.039-3.773v7.235c0 .589-.485 1.068-1.08 1.068H1.076c-.596 0-1.08-.479-1.08-1.068V4.021c0-.589.484-1.068 1.08-1.068h5.511c-.351.211-1.561 1.284-2.03 2.02H2.384c-.199 0-.36.16-.36.357v8.327c0 .196.161.356.36.356H14.63c.199 0 .36-.16.36-.356V9.02z"/></g></g></svg>