<svg xmlns="http://www.w3.org/2000/svg" width="17" height="13" viewBox="0 0 17 13"><g><g><path fill="#b2b9bd" d="M17.157 1.547a6.98 6.98 0 0 1-1.952.518A3.318 3.318 0 0 0 16.7.25a6.985 6.985 0 0 1-2.157.796 3.448 3.448 0 0 0-2.48-1.037c-1.875 0-3.396 1.47-3.396 3.282 0 .256.03.507.088.747C5.93 3.901 3.427 2.595 1.752.611a3.177 3.177 0 0 0-.46 1.648c0 1.14.6 2.143 1.511 2.731a3.47 3.47 0 0 1-1.538-.41v.041c0 1.59 1.17 2.916 2.724 3.217a3.505 3.505 0 0 1-1.534.056c.432 1.304 1.687 2.253 3.173 2.278a6.967 6.967 0 0 1-4.218 1.406c-.275 0-.545-.016-.81-.047a9.859 9.859 0 0 0 5.206 1.474c6.249 0 9.665-4.999 9.665-9.335a9.86 9.86 0 0 0-.01-.424 6.778 6.778 0 0 0 1.696-1.699z"/><path fill="#fff" d="M17.157 1.547a6.98 6.98 0 0 1-1.952.518A3.318 3.318 0 0 0 16.7.25a6.985 6.985 0 0 1-2.157.796 3.448 3.448 0 0 0-2.48-1.037c-1.875 0-3.396 1.47-3.396 3.282 0 .256.03.507.088.747C5.93 3.901 3.427 2.595 1.752.611a3.177 3.177 0 0 0-.46 1.648c0 1.14.6 2.143 1.511 2.731a3.47 3.47 0 0 1-1.538-.41v.041c0 1.59 1.17 2.916 2.724 3.217a3.505 3.505 0 0 1-1.534.056c.432 1.304 1.687 2.253 3.173 2.278a6.967 6.967 0 0 1-4.218 1.406c-.275 0-.545-.016-.81-.047a9.859 9.859 0 0 0 5.206 1.474c6.249 0 9.665-4.999 9.665-9.335a9.86 9.86 0 0 0-.01-.424 6.778 6.778 0 0 0 1.696-1.699z"/></g></g></svg>