<svg xmlns="http://www.w3.org/2000/svg" width="23" height="14" viewBox="0 0 23 14"><g><g><path fill="#56ccc8" d="M11.513 13.96c-4.234 0-8.257-2.402-11.039-6.589a.69.69 0 0 1 0-.765C3.256 2.419 7.28.016 11.513.016c4.235 0 8.258 2.403 11.038 6.59a.69.69 0 0 1 0 .765c-2.78 4.187-6.803 6.589-11.038 6.589zm.452-11.963c-2.778 0-5.038 2.246-5.038 5.006 0 2.761 2.26 5.006 5.038 5.006 2.778 0 5.037-2.245 5.037-5.006 0-2.76-2.26-5.006-5.037-5.006zm.042 2.002a3.007 3.007 0 1 1 0 6.013 3.007 3.007 0 0 1 0-6.013z"/><path fill="#049372" d="M11.513 13.96c-4.234 0-8.257-2.402-11.039-6.589a.69.69 0 0 1 0-.765C3.256 2.419 7.28.016 11.513.016c4.235 0 8.258 2.403 11.038 6.59a.69.69 0 0 1 0 .765c-2.78 4.187-6.803 6.589-11.038 6.589zm.452-11.963c-2.778 0-5.038 2.246-5.038 5.006 0 2.761 2.26 5.006 5.038 5.006 2.778 0 5.037-2.245 5.037-5.006 0-2.76-2.26-5.006-5.037-5.006zm.042 2.002a3.007 3.007 0 1 1 0 6.013 3.007 3.007 0 0 1 0-6.013z"/></g></g></svg>